<svg xmlns="http://www.w3.org/2000/svg" width="24" height="24" viewBox="0 0 24 24" fill="none" stroke="currentColor" stroke-width="2" stroke-linecap="round" stroke-linejoin="round"><path d="M14.5 15.5c-1.5.5-3.5.5-5 0-1.5-.5-3.5-1.5-5-2.5-1.5-1-3-2-4-2s-1.5 1-1 2c.5 1 1.5 1.5 2 2.5.5 1 1.5 1.5 2.5 1.5s2.5.5 3.5 1.5c1 1 1.5 2.5 1.5 3.5s.5 2.5 1.5 2.5c1 0 2-1.5 2-3s.5-3 1.5-4c1-1 2.5-1 4-1 1.5 0 3-.5 4-1.5s1.5-2.5 1.5-4c0-1.5-.5-3-1.5-4-1-1-2.5-1-4-1-1.5 0-3 .5-4 1.5s-1.5 2.5-1.5 4c0 1 .5 2 1.5 2.5Z"/></svg>